<?xml version="1.0" encoding="UTF-8" standalone="no"?>
<!-- Created with Inkscape (http://www.inkscape.org/) -->

<svg
   width="71.708435mm"
   height="22.431129mm"
   viewBox="0 0 71.708435 22.431129"
   version="1.1"
   id="svg1"
   xmlns="http://www.w3.org/2000/svg"
   xmlns:svg="http://www.w3.org/2000/svg">
  <defs
     id="defs1">
    <clipPath
       clipPathUnits="userSpaceOnUse"
       id="clipPath422">
      <path
         d="M 0,0 H 841.89 V 595.276 H 0 Z"
         transform="translate(-327.32791,-296.17741)"
         id="path422" />
    </clipPath>
    <clipPath
       clipPathUnits="userSpaceOnUse"
       id="clipPath424">
      <path
         d="M 0,0 H 841.89 V 595.276 H 0 Z"
         transform="translate(-387.72533,-300.24331)"
         id="path424" />
    </clipPath>
    <clipPath
       clipPathUnits="userSpaceOnUse"
       id="clipPath426">
      <path
         d="M 0,0 H 841.89 V 595.276 H 0 Z"
         transform="translate(-331.97873,-275.27341)"
         id="path426" />
    </clipPath>
    <clipPath
       clipPathUnits="userSpaceOnUse"
       id="clipPath428">
      <path
         d="M 0,0 H 841.89 V 595.276 H 0 Z"
         transform="translate(-341.57153,-319.69081)"
         id="path428" />
    </clipPath>
    <clipPath
       clipPathUnits="userSpaceOnUse"
       id="clipPath430">
      <path
         d="M 0,0 H 841.89 V 595.276 H 0 Z"
         transform="translate(-325.19888,-288.77131)"
         id="path430" />
    </clipPath>
    <clipPath
       clipPathUnits="userSpaceOnUse"
       id="clipPath437">
      <path
         d="M 0,0 H 841.89 V 595.276 H 0 Z"
         transform="translate(-347.62523,-266.95121)"
         id="path437" />
    </clipPath>
    <clipPath
       clipPathUnits="userSpaceOnUse"
       id="clipPath439">
      <path
         d="M 0,0 H 841.89 V 595.276 H 0 Z"
         transform="translate(-352.61183,-261.96551)"
         id="path439" />
    </clipPath>
    <clipPath
       clipPathUnits="userSpaceOnUse"
       id="clipPath441">
      <path
         d="M 0,0 H 841.89 V 595.276 H 0 Z"
         transform="translate(-366.11093,-267.43771)"
         id="path441" />
    </clipPath>
    <clipPath
       clipPathUnits="userSpaceOnUse"
       id="clipPath443">
      <path
         d="M 0,0 H 841.89 V 595.276 H 0 Z"
         transform="translate(-387.08873,-273.38371)"
         id="path443" />
    </clipPath>
    <clipPath
       clipPathUnits="userSpaceOnUse"
       id="clipPath445">
      <path
         d="M 0,0 H 841.89 V 595.276 H 0 Z"
         transform="translate(-400.37551,-273.38371)"
         id="path445" />
    </clipPath>
    <clipPath
       clipPathUnits="userSpaceOnUse"
       id="clipPath447">
      <path
         d="M 0,0 H 841.89 V 595.276 H 0 Z"
         transform="translate(-432.84459,-267.68401)"
         id="path447" />
    </clipPath>
    <clipPath
       clipPathUnits="userSpaceOnUse"
       id="clipPath449">
      <path
         d="M 0,0 H 841.89 V 595.276 H 0 Z"
         transform="translate(-451.95294,-278.61581)"
         id="path449" />
    </clipPath>
    <clipPath
       clipPathUnits="userSpaceOnUse"
       id="clipPath451">
      <path
         d="M 0,0 H 841.89 V 595.276 H 0 Z"
         transform="translate(-472.58139,-278.61581)"
         id="path451" />
    </clipPath>
    <clipPath
       clipPathUnits="userSpaceOnUse"
       id="clipPath453">
      <path
         d="M 0,0 H 841.89 V 595.276 H 0 Z"
         transform="translate(-487.65084,-273.25561)"
         id="path453" />
    </clipPath>
    <clipPath
       clipPathUnits="userSpaceOnUse"
       id="clipPath455">
      <path
         d="M 0,0 H 841.89 V 595.276 H 0 Z"
         transform="translate(-499.11819,-279.56261)"
         id="path455" />
    </clipPath>
    <clipPath
       clipPathUnits="userSpaceOnUse"
       id="clipPath457">
      <path
         d="M 0,0 H 841.89 V 595.276 H 0 Z"
         transform="translate(-506.26014,-267.27281)"
         id="path457" />
    </clipPath>
  </defs>
  <g
     id="layer1"
     transform="translate(-175.94787,-179.65208)">
    <path
       id="path421"
       d="M 0,0 C -0.104,0.565 -0.145,1.231 -0.145,1.897 V 5.769 H 2.61 V 6.625 H -0.145 V 9.66 L -2.57,8.43 V 6.625 H -3.719 V 5.769 H -2.57 V 1.292 c 0.042,-0.606 0.124,-1.211 0.27,-1.736 0.373,-1.473 2.818,-2.22 5.264,-2.22 v 0.848 C 1.596,-1.816 0.228,-1.211 0,0"
       style="fill:#004f91;fill-opacity:1;fill-rule:nonzero;stroke:none"
       transform="matrix(0.35277776,0,0,-0.35277776,182.02193,189.92618)"
       clip-path="url(#clipPath422)" />
    <path
       id="path423"
       d="m 0,0 c -3.119,-13.109 -39.709,-19.132 -42.829,-7.859 -1.433,5.331 -1.433,13.048 0,18.964 3.12,12.617 39.71,19.05 42.829,7.367 C 1.349,13.208 1.433,5.834 0,0 m -33.471,10.945 c -0.758,-4.731 -0.758,-10.97 0,-15.434 1.771,-9.212 22.342,-5.924 24.113,4.568 C -8.6,4.727 -8.6,10.72 -9.442,15.087 -11.213,24.71 -31.7,21.025 -33.471,10.945"
       style="fill:#004f91;fill-opacity:1;fill-rule:nonzero;stroke:none"
       transform="matrix(0.35277776,0,0,-0.35277776,203.3288,188.49182)"
       clip-path="url(#clipPath424)" />
    <path
       id="path425"
       d="m 0,0 c 0.361,2.046 0.506,4.409 0.506,6.747 v 26.482 l 8.452,4.319 V 6.108 C 8.838,3.225 8.525,1.782 8.019,-0.148 c -1.3,-5.399 -9.825,-9.519 -18.35,-11.017 v 2.974 C -5.563,-7.352 -0.795,-4.389 0,0"
       style="fill:#004f91;fill-opacity:1;fill-rule:nonzero;stroke:none"
       transform="matrix(0.35277776,0,0,-0.35277776,183.66264,197.30064)"
       clip-path="url(#clipPath426)" />
    <path
       id="path427"
       d="m 0,0 c -0.722,-3.031 -9.03,-4.421 -9.753,-1.857 -0.289,1.225 -0.289,2.995 0,4.392 C -9.03,5.424 -0.722,6.885 0,4.179 0.361,2.967 0.361,1.267 0,0"
       style="fill:#004f91;fill-opacity:1;fill-rule:nonzero;stroke:none"
       transform="matrix(0.35277776,0,0,-0.35277776,187.04677,181.63117)"
       clip-path="url(#clipPath428)" />
    <path
       id="path429"
       d="m 0,0 c -1.889,3.01 -7.685,3.094 -9.661,4.766 -1.073,0.878 -1.147,2.28 -0.288,3.2 1.459,1.588 5.011,1.441 7.201,0.73 0.343,-0.125 0.902,-0.292 1.159,-0.418 l 0.003,0.003 v 1.878 c -3.109,1.04 -7.359,1.064 -10.178,-0.041 -3.135,-1.213 -4.423,-4.725 -2.233,-7.317 2.318,-2.759 7.943,-2.885 9.532,-4.599 0.729,-0.836 0.565,-2.113 -0.301,-2.843 -1.184,-0.997 -4.191,-1.194 -6.793,-0.6 -1.549,0.353 -2.858,1.013 -3.373,1.293 V -6.015 C -11.6,-8.2 -4.834,-8.367 -1.503,-6.355 0.644,-5.101 1.331,-2.091 0,0"
       style="fill:#004f91;fill-opacity:1;fill-rule:nonzero;stroke:none"
       transform="matrix(0.35277776,0,0,-0.35277776,181.27086,192.53888)"
       clip-path="url(#clipPath430)" />
    <path
       id="path431"
       d="m 214.20764,196.23963 h -2.11208 v -2.07116 h 2.11208 z"
       style="fill:#10bbef;fill-opacity:1;fill-rule:nonzero;stroke:none;stroke-width:0.352778" />
    <path
       id="path432"
       d="m 214.20764,198.27587 h -2.11208 v -2.07116 h 2.11208 z"
       style="fill:#004f91;fill-opacity:1;fill-rule:nonzero;stroke:none;stroke-width:0.352778" />
    <path
       id="path433"
       d="m 212.09521,198.27587 h -2.18617 v -2.07116 h 2.18617 z"
       style="fill:#ef7d00;fill-opacity:1;fill-rule:nonzero;stroke:none;stroke-width:0.352778" />
    <path
       id="path434"
       d="m 216.3938,198.27587 h -2.18616 v -2.07116 h 2.18616 z"
       style="fill:#fbba00;fill-opacity:1;fill-rule:nonzero;stroke:none;stroke-width:0.352778" />
    <path
       id="path435"
       d="m 214.20764,200.34702 h -2.11208 v -2.07115 h 2.11208 z"
       style="fill:#afca0b;fill-opacity:1;fill-rule:nonzero;stroke:none;stroke-width:0.352778" />
    <path
       id="path436"
       d="m 0,0 v 16.952 c 0,0.166 0.083,0.249 0.25,0.249 h 1.271 c 0.166,0 0.249,-0.083 0.249,-0.249 V 0 c 0,-0.166 -0.083,-0.249 -0.249,-0.249 H 0.25 C 0.083,-0.249 0,-0.166 0,0"
       style="fill:#878787;fill-opacity:1;fill-rule:nonzero;stroke:none"
       transform="matrix(0.35277776,0,0,-0.35277776,189.18238,200.23653)"
       clip-path="url(#clipPath437)" />
    <path
       id="path438"
       d="m 0,0 v 0.997 c 0,0.167 0.082,0.25 0.249,0.25 H 0.348 C 0.997,1.263 1.5,1.359 1.857,1.534 2.214,1.708 2.522,2.032 2.78,2.505 c 0.257,0.474 0.535,1.194 0.834,2.157 0.034,0.067 0.034,0.116 0,0.149 l -4.212,12.266 -0.025,0.099 c 0,0.117 0.074,0.175 0.224,0.175 h 1.321 c 0.149,0 0.25,-0.066 0.299,-0.2 L 4.462,7.08 C 4.478,7.047 4.503,7.03 4.537,7.03 c 0.033,0 0.057,0.017 0.074,0.05 l 3.191,10.071 c 0.05,0.134 0.15,0.2 0.299,0.2 h 1.297 c 0.182,0 0.249,-0.092 0.199,-0.274 L 4.986,3.639 C 4.586,2.527 4.213,1.704 3.863,1.172 3.515,0.64 3.079,0.27 2.555,0.063 2.032,-0.145 1.296,-0.249 0.348,-0.249 H 0.174 C 0.057,-0.249 0,-0.166 0,0"
       style="fill:#878787;fill-opacity:1;fill-rule:nonzero;stroke:none"
       transform="matrix(0.35277776,0,0,-0.35277776,190.94154,201.99537)"
       clip-path="url(#clipPath439)" />
    <path
       id="path440"
       d="m 0,0 c -0.856,0.623 -1.442,1.466 -1.757,2.531 -0.216,0.73 -0.325,1.761 -0.325,3.091 0,1.197 0.109,2.21 0.325,3.041 0.299,1.03 0.88,1.857 1.744,2.48 0.865,0.624 1.895,0.935 3.092,0.935 1.213,0 2.264,-0.308 3.154,-0.922 C 7.121,10.54 7.699,9.776 7.965,8.863 8.048,8.563 8.098,8.314 8.115,8.115 V 8.064 C 8.115,7.948 8.039,7.874 7.89,7.841 L 6.644,7.666 H 6.594 C 6.477,7.666 6.403,7.74 6.37,7.89 L 6.295,8.264 c -0.15,0.632 -0.516,1.167 -1.097,1.608 -0.582,0.44 -1.288,0.66 -2.119,0.66 -0.832,0 -1.525,-0.22 -2.082,-0.66 C 0.44,9.431 0.079,8.846 -0.087,8.115 -0.236,7.482 -0.312,6.644 -0.312,5.597 c 0,-1.098 0.076,-1.945 0.225,-2.543 0.166,-0.748 0.527,-1.342 1.084,-1.783 0.557,-0.44 1.25,-0.66 2.082,-0.66 0.814,0 1.516,0.211 2.107,0.636 0.589,0.424 0.959,0.967 1.109,1.632 v 0.1 l 0.025,0.1 C 6.336,3.244 6.436,3.312 6.619,3.278 L 7.841,3.079 C 8.006,3.046 8.081,2.954 8.065,2.805 L 7.965,2.306 C 7.715,1.342 7.142,0.561 6.244,-0.038 5.348,-0.636 4.292,-0.935 3.079,-0.935 1.882,-0.935 0.855,-0.623 0,0"
       style="fill:#878787;fill-opacity:1;fill-rule:nonzero;stroke:none"
       transform="matrix(0.35277776,0,0,-0.35277776,195.70372,200.0649)"
       clip-path="url(#clipPath441)" />
    <path
       id="path442"
       d="m 0,0 v -0.798 c 0,-0.167 -0.083,-0.249 -0.249,-0.249 h -8.053 c -0.066,0 -0.099,-0.034 -0.099,-0.1 0.033,-0.914 0.083,-1.504 0.149,-1.771 0.183,-0.747 0.574,-1.337 1.172,-1.769 0.598,-0.432 1.362,-0.648 2.293,-0.648 0.699,0 1.313,0.158 1.845,0.474 0.531,0.315 0.947,0.764 1.246,1.345 0.101,0.15 0.216,0.183 0.35,0.1 l 0.972,-0.573 c 0.133,-0.083 0.166,-0.2 0.1,-0.349 -0.416,-0.798 -1.039,-1.425 -1.87,-1.882 -0.831,-0.458 -1.787,-0.685 -2.867,-0.685 -1.18,0.016 -2.169,0.298 -2.967,0.847 -0.797,0.548 -1.37,1.312 -1.72,2.293 -0.299,0.798 -0.448,1.945 -0.448,3.441 0,0.698 0.012,1.266 0.037,1.707 0.025,0.44 0.087,0.835 0.187,1.184 0.283,1.08 0.852,1.945 1.708,2.593 0.855,0.648 1.89,0.972 3.104,0.972 1.512,0 2.675,-0.382 3.49,-1.146 C -0.806,4.221 -0.299,3.141 -0.099,1.745 -0.033,1.279 0,0.698 0,0 M -7.142,3.951 C -7.683,3.527 -8.036,2.958 -8.202,2.243 -8.302,1.895 -8.368,1.329 -8.401,0.548 c 0,-0.067 0.033,-0.1 0.099,-0.1 h 6.457 c 0.066,0 0.1,0.033 0.1,0.1 -0.034,0.748 -0.083,1.279 -0.15,1.596 -0.183,0.748 -0.552,1.341 -1.109,1.782 -0.557,0.44 -1.259,0.66 -2.106,0.66 -0.815,0 -1.493,-0.211 -2.032,-0.635 m 0.985,3.714 c -0.034,0.058 -0.025,0.129 0.025,0.212 l 1.495,2.717 c 0.05,0.117 0.149,0.175 0.299,0.175 h 1.122 c 0.1,0 0.162,-0.029 0.187,-0.087 0.025,-0.058 0.012,-0.129 -0.037,-0.212 L -4.762,7.753 C -4.845,7.636 -4.945,7.578 -5.061,7.578 h -0.898 c -0.099,0 -0.165,0.029 -0.198,0.087"
       style="fill:#878787;fill-opacity:1;fill-rule:nonzero;stroke:none"
       transform="matrix(0.35277776,0,0,-0.35277776,203.10422,197.96729)"
       clip-path="url(#clipPath443)" />
    <path
       id="path444"
       d="m 0,0 v -0.798 c 0,-0.167 -0.083,-0.249 -0.249,-0.249 h -8.053 c -0.066,0 -0.099,-0.034 -0.099,-0.1 0.033,-0.914 0.083,-1.504 0.149,-1.771 0.183,-0.747 0.574,-1.337 1.172,-1.769 0.598,-0.432 1.362,-0.648 2.293,-0.648 0.699,0 1.313,0.158 1.845,0.474 0.532,0.315 0.947,0.764 1.246,1.345 0.101,0.15 0.216,0.183 0.35,0.1 l 0.972,-0.573 c 0.133,-0.083 0.166,-0.2 0.1,-0.349 -0.416,-0.798 -1.039,-1.425 -1.87,-1.882 -0.831,-0.458 -1.787,-0.685 -2.867,-0.685 -1.18,0.016 -2.169,0.298 -2.967,0.847 -0.797,0.548 -1.37,1.312 -1.719,2.293 -0.3,0.798 -0.449,1.945 -0.449,3.441 0,0.698 0.012,1.266 0.037,1.707 0.025,0.44 0.087,0.835 0.187,1.184 0.283,1.08 0.852,1.945 1.708,2.593 0.855,0.648 1.89,0.972 3.104,0.972 1.512,0 2.675,-0.382 3.49,-1.146 C -0.806,4.221 -0.299,3.141 -0.099,1.745 -0.033,1.279 0,0.698 0,0 M -7.142,3.951 C -7.683,3.527 -8.036,2.958 -8.202,2.243 -8.302,1.895 -8.368,1.329 -8.401,0.548 c 0,-0.067 0.033,-0.1 0.099,-0.1 h 6.457 c 0.066,0 0.1,0.033 0.1,0.1 -0.034,0.748 -0.083,1.279 -0.15,1.596 -0.183,0.748 -0.552,1.341 -1.109,1.782 -0.557,0.44 -1.259,0.66 -2.106,0.66 -0.815,0 -1.493,-0.211 -2.032,-0.635"
       style="fill:#878787;fill-opacity:1;fill-rule:nonzero;stroke:none"
       transform="matrix(0.35277776,0,0,-0.35277776,207.7915,197.96729)"
       clip-path="url(#clipPath445)" />
    <path
       id="path446"
       d="m 0,0 c -0.856,0.623 -1.442,1.466 -1.757,2.531 -0.216,0.73 -0.325,1.761 -0.325,3.091 0,1.197 0.109,2.21 0.325,3.041 0.299,1.03 0.88,1.857 1.744,2.48 0.865,0.624 1.895,0.935 3.092,0.935 1.213,0 2.264,-0.308 3.154,-0.922 C 7.121,10.54 7.699,9.776 7.965,8.863 8.048,8.563 8.098,8.314 8.115,8.115 V 8.065 C 8.115,7.948 8.039,7.874 7.89,7.841 L 6.644,7.666 H 6.594 C 6.477,7.666 6.403,7.74 6.37,7.89 L 6.294,8.264 C 6.145,8.896 5.779,9.431 5.198,9.872 c -0.582,0.44 -1.288,0.66 -2.119,0.66 -0.832,0 -1.525,-0.22 -2.082,-0.66 C 0.44,9.431 0.079,8.846 -0.087,8.115 -0.236,7.482 -0.312,6.644 -0.312,5.597 c 0,-1.098 0.076,-1.945 0.225,-2.543 0.166,-0.748 0.527,-1.342 1.084,-1.783 0.557,-0.44 1.25,-0.66 2.082,-0.66 0.814,0 1.516,0.211 2.107,0.636 0.589,0.424 0.959,0.967 1.108,1.632 v 0.1 l 0.026,0.1 c 0.016,0.165 0.116,0.233 0.299,0.2 l 1.222,-0.2 C 8.006,3.046 8.081,2.954 8.065,2.805 L 7.965,2.306 C 7.715,1.342 7.142,0.561 6.244,-0.038 5.348,-0.636 4.292,-0.935 3.079,-0.935 1.882,-0.935 0.855,-0.623 0,0"
       style="fill:#878787;fill-opacity:1;fill-rule:nonzero;stroke:none"
       transform="matrix(0.35277776,0,0,-0.35277776,219.24587,199.97801)"
       clip-path="url(#clipPath447)" />
    <path
       id="path448"
       d="m 0,0 c 0.814,-0.765 1.222,-1.779 1.222,-3.042 v -8.376 c 0,-0.166 -0.083,-0.249 -0.249,-0.249 h -1.272 c -0.167,0 -0.249,0.083 -0.249,0.249 v 1.022 c 0,0.033 -0.013,0.058 -0.038,0.075 -0.025,0.016 -0.054,0.008 -0.087,-0.025 -0.415,-0.499 -0.955,-0.877 -1.62,-1.134 -0.666,-0.258 -1.405,-0.387 -2.219,-0.387 -1.181,0 -2.169,0.299 -2.967,0.898 -0.798,0.598 -1.196,1.512 -1.196,2.742 0,1.246 0.452,2.231 1.358,2.954 0.906,0.723 2.165,1.084 3.777,1.084 h 2.892 c 0.066,0 0.1,0.034 0.1,0.1 v 0.948 c 0,0.847 -0.238,1.516 -0.711,2.006 -0.473,0.49 -1.209,0.735 -2.206,0.735 -0.798,0 -1.446,-0.153 -1.944,-0.461 -0.499,-0.307 -0.807,-0.735 -0.923,-1.283 -0.049,-0.167 -0.15,-0.241 -0.299,-0.224 l -1.347,0.174 c -0.182,0.033 -0.257,0.1 -0.224,0.199 0.133,0.931 0.632,1.687 1.496,2.269 0.864,0.581 1.945,0.873 3.241,0.873 C -1.969,1.147 -0.814,0.764 0,0 m -1.62,-9.611 c 0.714,0.49 1.072,1.151 1.072,1.983 v 1.944 c 0,0.066 -0.034,0.1 -0.1,0.1 h -2.618 c -1.096,0 -1.978,-0.225 -2.642,-0.674 -0.665,-0.449 -0.997,-1.072 -0.997,-1.869 0,-0.732 0.253,-1.284 0.76,-1.658 0.507,-0.374 1.167,-0.561 1.982,-0.561 0.98,0 1.828,0.245 2.543,0.735"
       style="fill:#878787;fill-opacity:1;fill-rule:nonzero;stroke:none"
       transform="matrix(0.35277776,0,0,-0.35277776,225.98687,196.12152)"
       clip-path="url(#clipPath449)" />
    <path
       id="path450"
       d="m 0,0 c 0.724,-0.748 1.085,-1.77 1.085,-3.067 v -8.351 c 0,-0.166 -0.084,-0.249 -0.249,-0.249 h -1.247 c -0.166,0 -0.249,0.083 -0.249,0.249 v 8.002 c 0,0.914 -0.262,1.641 -0.786,2.182 -0.523,0.54 -1.208,0.809 -2.056,0.809 -0.881,0 -1.592,-0.266 -2.131,-0.797 -0.541,-0.532 -0.811,-1.247 -0.811,-2.144 v -8.052 c 0,-0.166 -0.083,-0.249 -0.249,-0.249 h -1.271 c -0.167,0 -0.25,0.083 -0.25,0.249 v 8.002 c 0,0.914 -0.258,1.641 -0.772,2.182 -0.516,0.54 -1.206,0.809 -2.069,0.809 -0.882,0 -1.584,-0.266 -2.107,-0.797 -0.523,-0.532 -0.786,-1.247 -0.786,-2.144 v -8.052 c 0,-0.166 -0.083,-0.249 -0.249,-0.249 h -1.271 c -0.167,0 -0.25,0.083 -0.25,0.249 V 0.698 c 0,0.165 0.083,0.249 0.25,0.249 h 1.271 c 0.166,0 0.249,-0.084 0.249,-0.249 v -0.997 c 0,-0.034 0.013,-0.055 0.038,-0.063 0.025,-0.009 0.054,0.004 0.088,0.038 0.364,0.482 0.834,0.843 1.408,1.084 0.573,0.241 1.209,0.361 1.907,0.361 0.863,0 1.603,-0.174 2.219,-0.523 0.614,-0.349 1.08,-0.856 1.395,-1.521 0.033,-0.083 0.075,-0.083 0.126,0 0.364,0.681 0.88,1.193 1.545,1.533 0.664,0.34 1.42,0.511 2.269,0.511 C -1.707,1.121 -0.723,0.747 0,0"
       style="fill:#878787;fill-opacity:1;fill-rule:nonzero;stroke:none"
       transform="matrix(0.35277776,0,0,-0.35277776,233.26413,196.12152)"
       clip-path="url(#clipPath451)" />
    <path
       id="path452"
       d="m 0,0 c 0,-1.33 -0.108,-2.36 -0.324,-3.091 -0.299,-1.064 -0.843,-1.899 -1.632,-2.506 -0.79,-0.606 -1.783,-0.91 -2.98,-0.91 -0.648,0 -1.247,0.129 -1.795,0.387 -0.548,0.257 -1.006,0.627 -1.371,1.109 -0.033,0.033 -0.062,0.046 -0.087,0.038 -0.025,-0.009 -0.038,-0.03 -0.038,-0.063 v -5.858 c 0,-0.166 -0.083,-0.249 -0.249,-0.249 h -1.271 c -0.166,0 -0.25,0.083 -0.25,0.249 V 6.058 c 0,0.166 0.084,0.249 0.25,0.249 h 1.271 c 0.166,0 0.249,-0.083 0.249,-0.249 V 5.011 c 0,-0.033 0.013,-0.054 0.038,-0.063 0.025,-0.008 0.054,0.005 0.087,0.038 0.365,0.482 0.819,0.855 1.359,1.121 0.54,0.266 1.143,0.4 1.807,0.4 1.163,0 2.139,-0.299 2.929,-0.898 0.79,-0.598 1.334,-1.412 1.633,-2.442 C -0.125,2.368 0,1.313 0,0 m -1.932,-1.907 c 0.091,0.457 0.137,1.093 0.137,1.907 0,0.781 -0.033,1.392 -0.1,1.833 -0.066,0.44 -0.182,0.835 -0.349,1.184 -0.199,0.597 -0.553,1.071 -1.059,1.421 -0.507,0.348 -1.11,0.523 -1.807,0.523 -0.665,0 -1.222,-0.175 -1.671,-0.523 C -7.23,4.088 -7.562,3.623 -7.778,3.041 -7.927,2.709 -8.036,2.318 -8.102,1.869 -8.168,1.421 -8.202,0.798 -8.202,0 c 0,-0.798 0.034,-1.425 0.1,-1.882 0.066,-0.458 0.183,-0.86 0.349,-1.209 0.2,-0.566 0.528,-1.019 0.985,-1.359 0.456,-0.341 1.001,-0.511 1.633,-0.511 0.664,0 1.242,0.166 1.732,0.498 0.49,0.333 0.844,0.773 1.06,1.322 0.182,0.365 0.319,0.777 0.411,1.234"
       style="fill:#878787;fill-opacity:1;fill-rule:nonzero;stroke:none"
       transform="matrix(0.35277776,0,0,-0.35277776,238.5803,198.01248)"
       clip-path="url(#clipPath453)" />
    <path
       id="path454"
       d="M 0,0 H 1.271 C 1.437,0 1.52,-0.083 1.52,-0.249 v -12.116 c 0,-0.166 -0.083,-0.249 -0.249,-0.249 H 0 c -0.167,0 -0.25,0.083 -0.25,0.249 v 1.072 c 0,0.033 -0.016,0.058 -0.049,0.074 -0.034,0.018 -0.058,0.01 -0.075,-0.024 -0.698,-1.031 -1.804,-1.546 -3.316,-1.546 -0.798,0 -1.533,0.162 -2.206,0.487 -0.673,0.324 -1.205,0.793 -1.595,1.408 -0.391,0.614 -0.586,1.354 -0.586,2.219 v 8.426 c 0,0.166 0.082,0.249 0.249,0.249 h 1.271 c 0.167,0 0.25,-0.083 0.25,-0.249 v -7.902 c 0,-0.948 0.265,-1.701 0.797,-2.257 0.532,-0.557 1.255,-0.835 2.17,-0.835 0.947,0 1.698,0.282 2.255,0.848 0.557,0.564 0.835,1.312 0.835,2.244 v 7.902 C -0.25,-0.083 -0.167,0 0,0"
       style="fill:#878787;fill-opacity:1;fill-rule:nonzero;stroke:none"
       transform="matrix(0.35277776,0,0,-0.35277776,242.62572,195.78751)"
       clip-path="url(#clipPath455)" />
    <path
       id="path456"
       d="m 0,0 c -0.723,0.299 -1.28,0.698 -1.67,1.197 -0.391,0.498 -0.586,1.055 -0.586,1.669 v 0.3 c 0,0.165 0.083,0.25 0.25,0.25 h 1.196 c 0.166,0 0.249,-0.085 0.249,-0.25 V 2.967 c 0,-0.549 0.287,-1.027 0.86,-1.434 0.573,-0.407 1.292,-0.61 2.156,-0.61 0.865,0 1.563,0.194 2.095,0.585 0.532,0.39 0.798,0.885 0.798,1.483 0,0.416 -0.137,0.756 -0.411,1.022 C 4.662,4.279 4.338,4.487 3.964,4.636 3.59,4.786 3.012,4.977 2.231,5.21 1.301,5.476 0.536,5.742 -0.062,6.008 -0.66,6.273 -1.164,6.644 -1.57,7.117 c -0.408,0.474 -0.611,1.076 -0.611,1.807 0,1.064 0.415,1.911 1.247,2.544 0.83,0.631 1.927,0.946 3.29,0.946 0.914,0 1.724,-0.149 2.431,-0.448 0.706,-0.3 1.25,-0.711 1.632,-1.234 0.383,-0.524 0.574,-1.11 0.574,-1.757 V 8.899 C 6.993,8.734 6.909,8.65 6.743,8.65 H 5.572 c -0.166,0 -0.249,0.084 -0.249,0.249 v 0.076 c 0,0.564 -0.271,1.038 -0.811,1.42 -0.54,0.383 -1.267,0.574 -2.181,0.574 -0.848,0 -1.529,-0.171 -2.044,-0.511 -0.515,-0.341 -0.773,-0.811 -0.773,-1.409 0,-0.565 0.25,-0.997 0.748,-1.296 C 0.76,7.454 1.534,7.154 2.581,6.855 3.544,6.572 4.326,6.307 4.924,6.058 5.522,5.808 6.037,5.447 6.469,4.973 6.901,4.499 7.118,3.88 7.118,3.116 7.118,2.035 6.694,1.172 5.846,0.523 4.998,-0.125 3.877,-0.449 2.48,-0.449 1.55,-0.449 0.723,-0.299 0,0"
       style="fill:#878787;fill-opacity:1;fill-rule:nonzero;stroke:none"
       transform="matrix(0.35277776,0,0,-0.35277776,245.14524,200.12308)"
       clip-path="url(#clipPath457)" />
  </g>
</svg>
