<?xml version="1.0" encoding="UTF-8" standalone="no"?>
<!-- Created with Inkscape (http://www.inkscape.org/) -->

<svg
   width="64.999908mm"
   height="57.955078mm"
   viewBox="0 0 64.999908 57.955078"
   version="1.1"
   id="svg1"
   xmlns="http://www.w3.org/2000/svg"
   xmlns:svg="http://www.w3.org/2000/svg">
  <defs
     id="defs1">
    <clipPath
       clipPathUnits="userSpaceOnUse"
       id="clipPath1227">
      <path
         d="M 0,0 H 841.89 V 595.276 H 0 Z"
         transform="translate(-176.394,-252.57341)"
         id="path1227" />
    </clipPath>
    <clipPath
       clipPathUnits="userSpaceOnUse"
       id="clipPath1229">
      <path
         d="M 0,0 H 841.89 V 595.276 H 0 Z"
         transform="translate(-317.87026,-263.1191)"
         id="path1229" />
    </clipPath>
    <clipPath
       clipPathUnits="userSpaceOnUse"
       id="clipPath1231">
      <path
         d="M 0,0 H 841.89 V 595.276 H 0 Z"
         transform="translate(-187.2885,-198.35461)"
         id="path1231" />
    </clipPath>
    <clipPath
       clipPathUnits="userSpaceOnUse"
       id="clipPath1233">
      <path
         d="M 0,0 H 841.89 V 595.276 H 0 Z"
         transform="translate(-209.75851,-313.56021)"
         id="path1233" />
    </clipPath>
    <clipPath
       clipPathUnits="userSpaceOnUse"
       id="clipPath1235">
      <path
         d="M 0,0 H 841.89 V 595.276 H 0 Z"
         transform="translate(-218.57551,-197.83171)"
         id="path1235" />
    </clipPath>
    <clipPath
       clipPathUnits="userSpaceOnUse"
       id="clipPath1237">
      <path
         d="M 0,0 H 841.89 V 595.276 H 0 Z"
         transform="translate(-224.51476,-191.429)"
         id="path1237" />
    </clipPath>
    <clipPath
       clipPathUnits="userSpaceOnUse"
       id="clipPath1239">
      <path
         d="M 0,0 H 841.89 V 595.276 H 0 Z"
         transform="translate(-240.59326,-198.4564)"
         id="path1239" />
    </clipPath>
    <clipPath
       clipPathUnits="userSpaceOnUse"
       id="clipPath1241">
      <path
         d="M 0,0 H 841.89 V 595.276 H 0 Z"
         transform="translate(-265.57876,-206.0924)"
         id="path1241" />
    </clipPath>
    <clipPath
       clipPathUnits="userSpaceOnUse"
       id="clipPath1243">
      <path
         d="M 0,0 H 841.89 V 595.276 H 0 Z"
         transform="translate(-281.40451,-206.0924)"
         id="path1243" />
    </clipPath>
    <clipPath
       clipPathUnits="userSpaceOnUse"
       id="clipPath1245">
      <path
         d="M 0,0 H 841.89 V 595.276 H 0 Z"
         transform="translate(-220.87126,-170.983)"
         id="path1245" />
    </clipPath>
    <clipPath
       clipPathUnits="userSpaceOnUse"
       id="clipPath1247">
      <path
         d="M 0,0 H 841.89 V 595.276 H 0 Z"
         transform="translate(-243.63001,-185.0218)"
         id="path1247" />
    </clipPath>
    <clipPath
       clipPathUnits="userSpaceOnUse"
       id="clipPath1249">
      <path
         d="M 0,0 H 841.89 V 595.276 H 0 Z"
         transform="translate(-268.20001,-185.0218)"
         id="path1249" />
    </clipPath>
    <clipPath
       clipPathUnits="userSpaceOnUse"
       id="clipPath1251">
      <path
         d="M 0,0 H 841.89 V 595.276 H 0 Z"
         transform="translate(-286.14826,-178.1381)"
         id="path1251" />
    </clipPath>
    <clipPath
       clipPathUnits="userSpaceOnUse"
       id="clipPath1253">
      <path
         d="M 0,0 H 841.89 V 595.276 H 0 Z"
         transform="translate(-299.80726,-186.2377)"
         id="path1253" />
    </clipPath>
    <clipPath
       clipPathUnits="userSpaceOnUse"
       id="clipPath1255">
      <path
         d="M 0,0 H 841.89 V 595.276 H 0 Z"
         transform="translate(-308.31376,-170.455)"
         id="path1255" />
    </clipPath>
    <clipPath
       clipPathUnits="userSpaceOnUse"
       id="clipPath1257">
      <path
         d="M 0,0 H 841.89 V 595.276 H 0 Z"
         transform="translate(-171.40725,-233.36411)"
         id="path1257" />
    </clipPath>
  </defs>
  <g
     id="layer1"
     transform="translate(-72.495854,-119.59167)">
    <path
       id="path1221"
       d="m 132.9214,161.11581 h -3.21874 v -3.40325 h 3.21874 z"
       style="fill:#10bbef;fill-opacity:1;fill-rule:nonzero;stroke:none;stroke-width:0.352778" />
    <path
       id="path1222"
       d="m 132.9214,164.4612 h -3.21874 v -3.40325 h 3.21874 z"
       style="fill:#004f91;fill-opacity:1;fill-rule:nonzero;stroke:none;stroke-width:0.352778" />
    <path
       id="path1223"
       d="m 129.70266,164.4612 h -3.33164 v -3.40325 h 3.33164 z"
       style="fill:#ef7d00;fill-opacity:1;fill-rule:nonzero;stroke:none;stroke-width:0.352778" />
    <path
       id="path1224"
       d="m 136.25268,164.4612 h -3.33163 v -3.40325 h 3.33163 z"
       style="fill:#fbba00;fill-opacity:1;fill-rule:nonzero;stroke:none;stroke-width:0.352778" />
    <path
       id="path1225"
       d="m 132.9214,167.86445 h -3.21874 v -3.40325 h 3.21874 z"
       style="fill:#afca0b;fill-opacity:1;fill-rule:nonzero;stroke:none;stroke-width:0.352778" />
    <path
       id="path1226"
       d="m 0,0 c -0.243,1.466 -0.34,3.193 -0.34,4.92 v 10.044 h 6.455 v 2.22 H -0.34 v 7.871 l -5.68,-3.191 v -4.68 h -2.692 v -2.22 H -6.02 V 3.35 c 0.097,-1.57 0.292,-3.141 0.631,-4.501 0.874,-3.822 6.603,-5.758 12.331,-5.758 v 2.198 C 3.738,-4.711 0.534,-3.141 0,0"
       style="fill:#ffffff;fill-opacity:1;fill-rule:nonzero;stroke:none"
       transform="matrix(0.35277776,0,0,-0.35277776,86.723744,146.23938)"
       clip-path="url(#clipPath1227)" />
    <path
       id="path1228"
       d="m 0,0 c -7.307,-34.001 -93.016,-49.623 -100.323,-20.383 -3.358,13.826 -3.358,33.841 0,49.187 C -93.016,61.528 -7.307,78.214 0,47.91 3.16,34.258 3.357,15.133 0,0 m -78.402,28.388 c -1.778,-12.271 -1.778,-28.454 0,-40.032 4.147,-23.893 52.334,-15.364 56.481,11.848 1.777,12.057 1.777,27.601 -0.197,38.928 -4.147,24.957 -52.137,15.402 -56.284,-10.744"
       style="fill:#ffffff;fill-opacity:1;fill-rule:nonzero;stroke:none"
       transform="matrix(0.35277776,0,0,-0.35277776,136.63342,142.51909)"
       clip-path="url(#clipPath1229)" />
    <path
       id="path1230"
       d="M 0,0 C 0.846,5.308 1.185,11.436 1.185,17.498 V 86.187 L 20.984,97.389 V 15.842 C 20.702,8.364 19.968,4.622 18.784,-0.385 15.738,-14.388 -4.231,-25.072 -24.199,-28.96 v 7.716 C -13.03,-19.07 -1.861,-11.385 0,0"
       style="fill:#ffffff;fill-opacity:1;fill-rule:nonzero;stroke:none"
       transform="matrix(0.35277776,0,0,-0.35277776,90.567082,165.36657)"
       clip-path="url(#clipPath1231)" />
    <path
       id="path1232"
       d="m 0,0 c -1.692,-7.861 -21.153,-11.466 -22.845,-4.815 -0.677,3.175 -0.677,7.767 0,11.389 C -21.153,14.068 -1.692,17.857 0,10.838 0.846,7.696 0.846,3.287 0,0"
       style="fill:#ffffff;fill-opacity:1;fill-rule:nonzero;stroke:none"
       transform="matrix(0.35277776,0,0,-0.35277776,98.493998,124.7246)"
       clip-path="url(#clipPath1233)" />
    <path
       id="path1234"
       d="m 0,0 v 21.77 c 0,0.213 0.099,0.32 0.298,0.32 h 1.514 c 0.197,0 0.296,-0.107 0.296,-0.32 V 0 c 0,-0.213 -0.099,-0.32 -0.296,-0.32 H 0.298 C 0.099,-0.32 0,-0.213 0,0"
       style="fill:#ffffff;fill-opacity:1;fill-rule:nonzero;stroke:none"
       transform="matrix(0.35277776,0,0,-0.35277776,101.60444,165.55104)"
       clip-path="url(#clipPath1235)" />
    <path
       id="path1236"
       d="m 0,0 v 1.28 c 0,0.214 0.098,0.321 0.297,0.321 h 0.118 c 0.772,0.021 1.371,0.144 1.797,0.368 0.425,0.225 0.791,0.64 1.099,1.248 0.306,0.609 0.638,1.533 0.994,2.771 0.039,0.085 0.039,0.148 0,0.19 l -5.018,15.752 -0.03,0.128 c 0,0.149 0.089,0.224 0.267,0.224 h 1.574 c 0.178,0 0.298,-0.085 0.356,-0.256 L 5.314,9.092 C 5.333,9.05 5.363,9.028 5.404,9.028 c 0.039,0 0.068,0.022 0.088,0.064 l 3.801,12.934 c 0.06,0.171 0.178,0.256 0.356,0.256 h 1.545 c 0.217,0 0.297,-0.117 0.237,-0.352 L 5.938,4.674 C 5.463,3.245 5.018,2.188 4.602,1.505 4.187,0.822 3.667,0.347 3.043,0.081 2.42,-0.186 1.544,-0.32 0.415,-0.32 H 0.207 C 0.068,-0.32 0,-0.213 0,0"
       style="fill:#ffffff;fill-opacity:1;fill-rule:nonzero;stroke:none"
       transform="matrix(0.35277776,0,0,-0.35277776,103.69968,167.80977)"
       clip-path="url(#clipPath1237)" />
    <path
       id="path1238"
       d="m 0,0 c -1.02,0.801 -1.718,1.883 -2.093,3.25 -0.257,0.938 -0.386,2.261 -0.386,3.97 0,1.536 0.129,2.837 0.386,3.905 0.356,1.323 1.049,2.385 2.078,3.185 1.03,0.801 2.257,1.201 3.682,1.201 1.445,0 2.697,-0.395 3.757,-1.185 1.058,-0.79 1.746,-1.771 2.063,-2.944 0.098,-0.385 0.158,-0.706 0.178,-0.961 v -0.064 c 0,-0.15 -0.089,-0.245 -0.268,-0.288 L 7.913,9.845 h -0.06 c -0.138,0 -0.227,0.095 -0.266,0.287 l -0.09,0.481 c -0.178,0.811 -0.613,1.499 -1.306,2.065 -0.693,0.565 -1.534,0.848 -2.524,0.848 -0.99,0 -1.816,-0.283 -2.48,-0.848 C 0.524,12.112 0.094,11.36 -0.103,10.421 -0.282,9.609 -0.371,8.532 -0.371,7.187 c 0,-1.409 0.089,-2.497 0.268,-3.266 0.197,-0.96 0.627,-1.723 1.29,-2.289 0.664,-0.565 1.49,-0.847 2.48,-0.847 0.97,0 1.806,0.271 2.509,0.816 0.702,0.544 1.143,1.243 1.321,2.096 v 0.129 l 0.03,0.128 C 7.546,4.167 7.666,4.253 7.883,4.21 L 9.339,3.954 C 9.536,3.911 9.625,3.794 9.605,3.602 L 9.487,2.961 C 9.189,1.723 8.506,0.72 7.437,-0.048 6.369,-0.817 5.112,-1.201 3.667,-1.201 2.242,-1.201 1.019,-0.801 0,0"
       style="fill:#ffffff;fill-opacity:1;fill-rule:nonzero;stroke:none"
       transform="matrix(0.35277776,0,0,-0.35277776,109.37181,165.33066)"
       clip-path="url(#clipPath1239)" />
    <path
       id="path1240"
       d="m 0,0 v -1.025 c 0,-0.214 -0.099,-0.32 -0.297,-0.32 h -9.591 c -0.079,0 -0.118,-0.043 -0.118,-0.129 0.039,-1.173 0.099,-1.931 0.178,-2.273 0.217,-0.96 0.683,-1.717 1.395,-2.273 0.713,-0.554 1.623,-0.831 2.731,-0.831 0.833,0 1.565,0.202 2.198,0.608 0.633,0.405 1.128,0.981 1.484,1.728 0.12,0.192 0.258,0.235 0.416,0.129 l 1.158,-0.736 c 0.159,-0.107 0.199,-0.257 0.12,-0.449 -0.496,-1.025 -1.238,-1.83 -2.228,-2.417 -0.989,-0.588 -2.128,-0.88 -3.414,-0.88 -1.406,0.021 -2.583,0.383 -3.534,1.088 -0.949,0.704 -1.632,1.686 -2.048,2.945 -0.357,1.025 -0.535,2.498 -0.535,4.419 0,0.896 0.015,1.626 0.045,2.192 0.03,0.565 0.104,1.072 0.222,1.521 0.337,1.387 1.015,2.497 2.035,3.329 1.018,0.833 2.251,1.249 3.696,1.249 1.801,0 3.187,-0.491 4.157,-1.472 C -0.96,5.42 -0.356,4.033 -0.118,2.241 -0.039,1.643 0,0.896 0,0 M -8.506,5.074 C -9.151,4.53 -9.571,3.798 -9.769,2.88 -9.888,2.433 -9.967,1.707 -10.006,0.704 c 0,-0.086 0.039,-0.129 0.118,-0.129 h 7.69 c 0.079,0 0.12,0.043 0.12,0.129 -0.041,0.961 -0.1,1.643 -0.179,2.049 -0.218,0.96 -0.658,1.723 -1.321,2.289 -0.663,0.565 -1.499,0.848 -2.509,0.848 -0.971,0 -1.777,-0.272 -2.419,-0.816 m 1.172,4.77 c -0.04,0.074 -0.03,0.165 0.03,0.272 l 1.781,3.489 c 0.059,0.15 0.178,0.224 0.356,0.224 h 1.337 c 0.118,0 0.193,-0.036 0.223,-0.111 0.029,-0.075 0.014,-0.166 -0.045,-0.273 L -5.672,9.956 C -5.771,9.807 -5.889,9.732 -6.028,9.732 h -1.069 c -0.118,0 -0.197,0.037 -0.237,0.112"
       style="fill:#ffffff;fill-opacity:1;fill-rule:nonzero;stroke:none"
       transform="matrix(0.35277776,0,0,-0.35277776,118.18614,162.63685)"
       clip-path="url(#clipPath1241)" />
    <path
       id="path1242"
       d="m 0,0 v -1.025 c 0,-0.214 -0.099,-0.32 -0.297,-0.32 h -9.591 c -0.079,0 -0.118,-0.043 -0.118,-0.129 0.039,-1.173 0.099,-1.931 0.178,-2.273 0.217,-0.96 0.682,-1.717 1.395,-2.273 0.713,-0.554 1.623,-0.831 2.731,-0.831 0.833,0 1.565,0.202 2.198,0.608 0.633,0.405 1.128,0.981 1.484,1.728 0.12,0.192 0.257,0.235 0.416,0.129 l 1.158,-0.736 c 0.159,-0.107 0.198,-0.257 0.119,-0.449 -0.495,-1.025 -1.237,-1.83 -2.227,-2.417 -0.989,-0.588 -2.128,-0.88 -3.414,-0.88 -1.406,0.021 -2.583,0.383 -3.534,1.088 -0.949,0.704 -1.632,1.686 -2.048,2.945 -0.357,1.025 -0.535,2.498 -0.535,4.419 0,0.896 0.015,1.626 0.045,2.192 0.03,0.565 0.103,1.072 0.222,1.521 0.337,1.387 1.015,2.497 2.034,3.329 1.019,0.833 2.252,1.249 3.697,1.249 1.801,0 3.187,-0.491 4.157,-1.472 C -0.96,5.42 -0.356,4.033 -0.118,2.241 -0.039,1.643 0,0.896 0,0 M -8.506,5.074 C -9.151,4.53 -9.571,3.798 -9.769,2.88 -9.888,2.433 -9.967,1.707 -10.006,0.704 c 0,-0.086 0.039,-0.129 0.118,-0.129 h 7.69 c 0.079,0 0.12,0.043 0.12,0.129 -0.041,0.961 -0.1,1.643 -0.179,2.049 -0.218,0.96 -0.658,1.723 -1.321,2.289 -0.663,0.565 -1.499,0.848 -2.509,0.848 -0.971,0 -1.777,-0.272 -2.419,-0.816"
       style="fill:#ffffff;fill-opacity:1;fill-rule:nonzero;stroke:none"
       transform="matrix(0.35277776,0,0,-0.35277776,123.76911,162.63685)"
       clip-path="url(#clipPath1243)" />
    <path
       id="path1244"
       d="M 0,0 C -1.02,0.801 -1.718,1.883 -2.093,3.25 -2.35,4.188 -2.48,5.511 -2.48,7.22 c 0,1.536 0.13,2.837 0.387,3.905 0.356,1.323 1.049,2.385 2.078,3.185 1.03,0.801 2.257,1.201 3.682,1.201 1.445,0 2.697,-0.395 3.757,-1.185 1.058,-0.79 1.746,-1.771 2.063,-2.944 0.098,-0.385 0.158,-0.706 0.178,-0.961 v -0.064 c 0,-0.15 -0.09,-0.245 -0.268,-0.288 L 7.913,9.845 h -0.06 c -0.138,0 -0.227,0.095 -0.266,0.287 l -0.09,0.481 c -0.178,0.811 -0.613,1.499 -1.306,2.065 -0.693,0.565 -1.534,0.848 -2.524,0.848 -0.99,0 -1.816,-0.283 -2.48,-0.848 C 0.524,12.112 0.094,11.36 -0.104,10.421 -0.282,9.609 -0.371,8.532 -0.371,7.187 c 0,-1.409 0.089,-2.497 0.267,-3.265 0.198,-0.961 0.628,-1.724 1.291,-2.29 0.664,-0.565 1.49,-0.847 2.48,-0.847 0.97,0 1.806,0.271 2.509,0.816 0.702,0.544 1.143,1.243 1.321,2.096 v 0.129 l 0.03,0.128 C 7.546,4.167 7.666,4.253 7.883,4.21 L 9.339,3.954 C 9.536,3.911 9.625,3.794 9.605,3.602 L 9.487,2.961 C 9.189,1.723 8.506,0.72 7.437,-0.048 6.369,-0.817 5.112,-1.201 3.667,-1.201 2.242,-1.201 1.019,-0.801 0,0"
       style="fill:#ffffff;fill-opacity:1;fill-rule:nonzero;stroke:none"
       transform="matrix(0.35277776,0,0,-0.35277776,102.41433,175.02266)"
       clip-path="url(#clipPath1245)" />
    <path
       id="path1246"
       d="m 0,0 c 0.97,-0.982 1.455,-2.285 1.455,-3.907 v -10.757 c 0,-0.212 -0.099,-0.319 -0.296,-0.319 h -1.515 c -0.199,0 -0.297,0.107 -0.297,0.319 v 1.313 c 0,0.043 -0.015,0.075 -0.045,0.097 -0.03,0.02 -0.064,0.01 -0.103,-0.033 -0.495,-0.64 -1.139,-1.126 -1.93,-1.456 -0.793,-0.331 -1.673,-0.497 -2.643,-0.497 -1.406,0 -2.583,0.384 -3.534,1.153 -0.95,0.768 -1.425,1.942 -1.425,3.522 0,1.6 0.539,2.865 1.619,3.793 1.078,0.929 2.577,1.393 4.498,1.393 h 3.445 c 0.078,0 0.118,0.043 0.118,0.128 v 1.217 c 0,1.088 -0.283,1.947 -0.846,2.576 -0.564,0.63 -1.44,0.945 -2.628,0.945 -0.95,0 -1.722,-0.197 -2.316,-0.592 C -7.037,-1.5 -7.403,-2.05 -7.542,-2.754 -7.601,-2.968 -7.72,-3.063 -7.898,-3.042 l -1.604,0.225 c -0.217,0.041 -0.306,0.127 -0.267,0.255 0.158,1.195 0.753,2.166 1.782,2.914 1.029,0.747 2.316,1.12 3.86,1.12 C -2.345,1.472 -0.97,0.981 0,0 m -1.93,-12.342 c 0.851,0.629 1.277,1.478 1.277,2.546 V -7.3 c 0,0.085 -0.04,0.129 -0.118,0.129 H -3.89 c -1.306,0 -2.356,-0.289 -3.147,-0.865 -0.792,-0.577 -1.188,-1.377 -1.188,-2.401 0,-0.94 0.302,-1.649 0.906,-2.129 0.604,-0.48 1.39,-0.721 2.36,-0.721 1.168,0 2.178,0.316 3.029,0.945"
       style="fill:#ffffff;fill-opacity:1;fill-rule:nonzero;stroke:none"
       transform="matrix(0.35277776,0,0,-0.35277776,110.44311,170.07009)"
       clip-path="url(#clipPath1247)" />
    <path
       id="path1248"
       d="m 0,0 c 0.862,-0.961 1.292,-2.273 1.292,-3.939 v -10.725 c 0,-0.212 -0.099,-0.319 -0.297,-0.319 H -0.49 c -0.197,0 -0.296,0.107 -0.296,0.319 v 10.278 c 0,1.173 -0.312,2.107 -0.936,2.801 -0.623,0.693 -1.439,1.04 -2.45,1.04 -1.048,0 -1.895,-0.342 -2.538,-1.024 -0.643,-0.683 -0.965,-1.601 -0.965,-2.754 v -10.341 c 0,-0.212 -0.1,-0.319 -0.297,-0.319 h -1.514 c -0.198,0 -0.297,0.107 -0.297,0.319 v 10.278 c 0,1.173 -0.308,2.107 -0.92,2.801 -0.615,0.693 -1.436,1.04 -2.465,1.04 -1.049,0 -1.886,-0.342 -2.509,-1.024 -0.623,-0.683 -0.936,-1.601 -0.936,-2.754 v -10.341 c 0,-0.212 -0.099,-0.319 -0.296,-0.319 h -1.514 c -0.199,0 -0.298,0.107 -0.298,0.319 v 15.56 c 0,0.213 0.099,0.32 0.298,0.32 h 1.514 c 0.197,0 0.296,-0.107 0.296,-0.32 v -1.28 c 0,-0.044 0.015,-0.07 0.045,-0.081 0.03,-0.011 0.064,0.005 0.105,0.049 0.434,0.618 0.994,1.082 1.677,1.392 0.683,0.309 1.44,0.464 2.271,0.464 1.029,0 1.91,-0.224 2.643,-0.672 0.732,-0.448 1.287,-1.099 1.662,-1.953 0.04,-0.107 0.09,-0.107 0.15,0 0.434,0.874 1.048,1.531 1.84,1.968 C -5.428,1.22 -4.528,1.44 -3.518,1.44 -2.034,1.44 -0.861,0.959 0,0"
       style="fill:#ffffff;fill-opacity:1;fill-rule:nonzero;stroke:none"
       transform="matrix(0.35277776,0,0,-0.35277776,119.11086,170.07009)"
       clip-path="url(#clipPath1249)" />
    <path
       id="path1250"
       d="m 0,0 c 0,-1.708 -0.129,-3.031 -0.386,-3.97 -0.357,-1.365 -1.004,-2.439 -1.944,-3.217 -0.941,-0.779 -2.123,-1.169 -3.549,-1.169 -0.772,0 -1.485,0.165 -2.138,0.497 -0.653,0.33 -1.198,0.805 -1.633,1.424 -0.04,0.042 -0.074,0.059 -0.104,0.048 -0.029,-0.011 -0.044,-0.038 -0.044,-0.08 v -7.524 c 0,-0.212 -0.1,-0.319 -0.297,-0.319 h -1.514 c -0.198,0 -0.298,0.107 -0.298,0.319 V 7.78 c 0,0.213 0.1,0.32 0.298,0.32 h 1.514 c 0.197,0 0.297,-0.107 0.297,-0.32 V 6.435 c 0,-0.042 0.015,-0.069 0.044,-0.08 0.03,-0.011 0.064,0.005 0.104,0.048 0.435,0.619 0.975,1.098 1.618,1.44 0.644,0.342 1.362,0.513 2.153,0.513 1.385,0 2.548,-0.384 3.489,-1.153 C -1.45,6.435 -0.801,5.389 -0.445,4.067 -0.148,3.042 0,1.686 0,0 m -2.301,-2.449 c 0.109,0.587 0.163,1.403 0.163,2.449 0,1.003 -0.04,1.788 -0.119,2.354 -0.078,0.564 -0.217,1.072 -0.416,1.52 -0.236,0.768 -0.658,1.376 -1.261,1.825 -0.604,0.447 -1.322,0.672 -2.153,0.672 -0.791,0 -1.455,-0.225 -1.989,-0.672 C -8.611,5.25 -9.007,4.653 -9.264,3.905 -9.442,3.479 -9.571,2.977 -9.65,2.401 -9.729,1.824 -9.769,1.025 -9.769,0 c 0,-1.025 0.04,-1.83 0.119,-2.417 0.079,-0.588 0.217,-1.104 0.416,-1.553 0.238,-0.726 0.628,-1.308 1.172,-1.745 0.545,-0.437 1.193,-0.656 1.945,-0.656 0.792,0 1.48,0.213 2.064,0.64 0.583,0.427 1.005,0.993 1.262,1.697 0.218,0.469 0.381,0.998 0.49,1.585"
       style="fill:#ffffff;fill-opacity:1;fill-rule:nonzero;stroke:none"
       transform="matrix(0.35277776,0,0,-0.35277776,125.4426,172.4985)"
       clip-path="url(#clipPath1251)" />
    <path
       id="path1252"
       d="m 0,0 h 1.514 c 0.197,0 0.297,-0.107 0.297,-0.32 v -15.559 c 0,-0.213 -0.1,-0.32 -0.297,-0.32 H 0 c -0.198,0 -0.298,0.107 -0.298,0.32 v 1.377 c 0,0.042 -0.019,0.074 -0.058,0.095 -0.041,0.022 -0.07,0.012 -0.09,-0.031 -0.831,-1.324 -2.148,-1.986 -3.949,-1.986 -0.95,0 -1.826,0.209 -2.627,0.625 -0.802,0.417 -1.435,1.019 -1.901,1.808 -0.465,0.79 -0.697,1.74 -0.697,2.85 V -0.32 c 0,0.213 0.098,0.32 0.296,0.32 h 1.514 c 0.199,0 0.298,-0.107 0.298,-0.32 v -10.148 c 0,-1.217 0.316,-2.184 0.949,-2.898 0.634,-0.715 1.495,-1.072 2.584,-1.072 1.128,0 2.023,0.362 2.687,1.088 0.664,0.725 0.994,1.685 0.994,2.882 V -0.32 C -0.298,-0.107 -0.198,0 0,0"
       style="fill:#ffffff;fill-opacity:1;fill-rule:nonzero;stroke:none"
       transform="matrix(0.35277776,0,0,-0.35277776,130.2612,169.64114)"
       clip-path="url(#clipPath1253)" />
    <path
       id="path1254"
       d="m 0,0 c -0.861,0.384 -1.525,0.896 -1.989,1.537 -0.466,0.639 -0.699,1.355 -0.699,2.144 v 0.384 c 0,0.213 0.1,0.321 0.298,0.321 h 1.426 c 0.197,0 0.296,-0.108 0.296,-0.321 V 3.81 c 0,-0.705 0.342,-1.318 1.024,-1.842 0.683,-0.522 1.539,-0.783 2.568,-0.783 1.03,0 1.861,0.249 2.495,0.752 0.634,0.501 0.95,1.137 0.95,1.904 0,0.534 -0.163,0.971 -0.489,1.313 C 5.552,5.495 5.167,5.762 4.721,5.954 4.276,6.146 3.588,6.391 2.658,6.69 1.549,7.032 0.638,7.374 -0.074,7.715 -0.786,8.056 -1.386,8.532 -1.87,9.139 c -0.486,0.609 -0.728,1.382 -0.728,2.322 0,1.365 0.495,2.454 1.485,3.266 0.989,0.811 2.296,1.216 3.919,1.216 1.088,0 2.054,-0.192 2.896,-0.577 0.84,-0.384 1.488,-0.912 1.943,-1.584 0.456,-0.673 0.684,-1.425 0.684,-2.257 v -0.096 c 0,-0.213 -0.1,-0.32 -0.297,-0.32 H 6.636 c -0.197,0 -0.296,0.107 -0.296,0.32 v 0.096 c 0,0.725 -0.323,1.334 -0.966,1.825 -0.643,0.491 -1.51,0.736 -2.598,0.736 -1.009,0 -1.821,-0.219 -2.435,-0.656 -0.613,-0.438 -0.92,-1.041 -0.92,-1.809 0,-0.726 0.297,-1.281 0.891,-1.665 C 0.906,9.572 1.827,9.188 3.074,8.804 4.221,8.44 5.152,8.1 5.865,7.78 6.578,7.459 7.19,6.995 7.705,6.387 8.219,5.778 8.478,4.983 8.478,4.002 8.478,2.614 7.973,1.505 6.963,0.672 5.953,-0.16 4.618,-0.576 2.954,-0.576 1.846,-0.576 0.861,-0.384 0,0"
       style="fill:#ffffff;fill-opacity:1;fill-rule:nonzero;stroke:none"
       transform="matrix(0.35277776,0,0,-0.35277776,133.2621,175.20893)"
       clip-path="url(#clipPath1255)" />
    <path
       id="path1256"
       d="m 0,0 c -4.426,7.807 -18.003,8.024 -22.63,12.362 -2.513,2.277 -2.687,5.912 -0.676,8.298 3.42,4.121 11.74,3.739 16.869,1.895 0.805,-0.325 2.112,-0.759 2.715,-1.084 l 0.007,0.006 v 4.872 c -7.282,2.699 -17.239,2.759 -23.842,-0.107 -7.342,-3.145 -10.36,-12.254 -5.23,-18.977 5.431,-7.157 18.606,-7.482 22.327,-11.928 1.71,-2.169 1.325,-5.482 -0.704,-7.374 -2.773,-2.587 -9.818,-3.098 -15.913,-1.558 -3.629,0.917 -6.693,2.628 -7.901,3.354 V -15.6 c 7.805,-5.668 23.654,-6.101 31.457,-0.883 C 1.508,-13.23 3.117,-5.422 0,0"
       style="fill:#ffffff;fill-opacity:1;fill-rule:nonzero;stroke:none"
       transform="matrix(0.35277776,0,0,-0.35277776,84.96453,153.016)"
       clip-path="url(#clipPath1257)" />
  </g>
</svg>
